<?xml version="1.0" encoding="utf-8"?>
<!-- Generator: Adobe Illustrator 21.0.0, SVG Export Plug-In . SVG Version: 6.00 Build 0)  -->
<svg version="1.1" id="Layer_1" xmlns="http://www.w3.org/2000/svg" xmlns:xlink="http://www.w3.org/1999/xlink" x="0px" y="0px"
	 viewBox="0 0 900 336" style="enable-background:new 0 0 900 336;" xml:space="preserve">
<style type="text/css">
	.st0{fill:#E2DED6;}
	.st1{fill:none;stroke:#FFFFFF;stroke-width:0.5;stroke-miterlimit:10;}
	.st2{clip-path:url(#SVGID_2_);fill:none;stroke:#FA8072;stroke-linecap:round;stroke-linejoin:round;stroke-miterlimit:10;}
	.st3{clip-path:url(#SVGID_2_);fill:none;stroke:#2C9F2C;stroke-linecap:round;stroke-linejoin:round;stroke-miterlimit:10;}
	.st4{clip-path:url(#SVGID_2_);fill:none;stroke:#B24242;stroke-linecap:round;stroke-linejoin:round;stroke-miterlimit:10;}
	.st5{clip-path:url(#SVGID_2_);fill:none;stroke:#FFA500;stroke-linecap:round;stroke-linejoin:round;stroke-miterlimit:10;}
	.st6{clip-path:url(#SVGID_2_);fill:none;stroke:#FFD700;stroke-linecap:round;stroke-linejoin:round;stroke-miterlimit:10;}
	.st7{clip-path:url(#SVGID_2_);fill:none;stroke:#51DE61;stroke-linecap:round;stroke-linejoin:round;stroke-miterlimit:10;}
	.st8{clip-path:url(#SVGID_2_);fill:none;stroke:#808000;stroke-linecap:round;stroke-linejoin:round;stroke-miterlimit:10;}
	.st9{clip-path:url(#SVGID_2_);fill:none;stroke:#84AC39;stroke-linecap:round;stroke-linejoin:round;stroke-miterlimit:10;}
	.st10{clip-path:url(#SVGID_2_);fill:none;stroke:#B16E6E;stroke-linecap:round;stroke-linejoin:round;stroke-miterlimit:10;}
	.st11{clip-path:url(#SVGID_2_);fill:none;stroke:#B9A76C;stroke-linecap:round;stroke-linejoin:round;stroke-miterlimit:10;}
	.st12{fill:none;stroke:#272525;stroke-width:0.5;stroke-miterlimit:10;}
	.st13{fill:#272525;}
	.st14{font-family:'Helvetica';}
	.st15{font-size:12px;}
</style>
<g>
	<rect x="40.3" y="2.5" class="st0" width="850" height="300"/>
	<path class="st1" d="M40.3,254.5h850 M40.3,206.5h850 M40.3,158.5h850 M40.3,110.5h850 M40.3,62.5h850 M40.3,14.5h850 M210.3,302.5
		V2.5 M380.3,302.5V2.5 M550.3,302.5V2.5 M720.3,302.5V2.5"/>
	<g>
		<defs>
			<rect id="SVGID_1_" x="40.3" y="2.5" width="850" height="300"/>
		</defs>
		<clipPath id="SVGID_2_">
			<use xlink:href="#SVGID_1_"  style="overflow:visible;"/>
		</clipPath>
		<polyline class="st2" points="40.3,271.3 42,275.1 43.7,270.3 45.4,264.1 47.1,256.9 48.8,254.5 50.5,258.8 52.2,258.8 
			53.9,258.8 55.6,259.8 57.3,264.6 59,265.5 60.7,263.6 62.4,263.6 64.1,258.3 65.8,252.1 67.5,250.2 69.2,233.4 70.9,230.5 
			72.6,233.4 74.3,241.1 76,238.2 77.7,227.6 79.4,214.2 81.1,220.4 82.8,231.5 84.5,236.7 86.2,235.8 87.9,232.4 89.6,234.3 
			91.3,232.9 93,238.2 94.7,234.3 96.4,237.2 98.1,247.3 99.8,244.9 101.5,254 103.2,257.9 104.9,258.3 106.6,242 108.3,223.8 
			110,230.5 111.7,224.7 113.4,238.2 115.1,242.5 116.8,252.6 118.5,250.7 120.2,260.3 121.9,260.3 123.6,265.1 125.3,264.1 
			127,263.1 128.7,265.1 130.4,255.9 132.1,265.1 133.8,266 135.5,256.9 137.2,259.3 138.9,258.3 140.6,267 142.3,263.1 144,269.9 
			145.7,274.2 147.4,277.1 149.1,282.3 150.8,280.9 152.5,280.9 154.2,285.2 155.9,291.9 157.6,293.9 159.3,288.1 161,283.3 
			162.7,272.3 164.4,270.8 166.1,276.6 167.8,270.3 169.5,272.3 171.2,270.8 172.9,279.5 174.6,278 176.3,269.9 178,272.7 
			179.7,277.5 181.4,280.4 183.1,285.7 184.8,283.3 186.5,292.9 188.2,287.6 189.9,294.8 191.6,297.2 193.3,299.1 195,302.5 
			196.7,302.5 198.4,302.5 200.1,301.5 201.8,302.5 203.5,302.5 205.2,302 206.9,302.5 208.6,301.5 210.3,300.6 212,299.6 
			213.7,301.1 215.4,298.7 217.1,293.4 218.8,293.9 220.5,297.2 222.2,295.8 223.9,298.2 225.6,298.2 227.3,300.6 229,302.5 
			230.7,301.5 232.4,302 234.1,302 235.8,302 237.5,302.5 239.2,302 240.9,302.5 242.6,302.5 244.3,302.5 246,302.5 247.7,301.5 
			249.4,300.1 251.1,300.1 252.8,297.2 254.5,295.8 256.2,301.1 257.9,299.1 259.6,301.1 261.3,299.1 263,297.2 264.7,300.6 
			266.4,298.7 268.1,300.1 269.8,296.3 271.5,296.7 273.2,294.8 274.9,289.1 276.6,282.8 278.3,287.1 280,291.5 281.7,295.3 
			283.4,296.3 285.1,294.8 286.8,293.9 288.5,288.6 290.2,292.4 291.9,294.3 293.6,298.7 295.3,298.7 297,298.2 298.7,300.6 
			300.4,301.1 302.1,302.5 303.8,301.5 305.5,301.5 307.2,302.5 308.9,302 310.6,302 312.3,302.5 314,302 315.7,295.8 317.4,298.7 
			319.1,296.3 320.8,293.4 322.5,296.3 324.2,297.2 325.9,292.4 327.6,287.6 329.3,285.2 331,288.6 332.7,296.3 334.4,294.3 
			336.1,294.3 337.8,299.6 339.5,297.2 341.2,295.3 342.9,290.5 344.6,291 346.3,290 348,294.3 349.7,290 351.4,290.5 353.1,292.9 
			354.8,291.5 356.5,297.7 358.2,298.2 359.9,298.7 361.6,296.7 363.3,297.2 365,298.2 366.7,301.1 368.4,301.5 370.1,302 
			371.8,300.1 373.5,297.7 375.2,299.6 376.9,297.2 378.6,297.2 380.3,298.2 382,293.9 383.7,298.2 385.4,296.3 387.1,290.5 
			388.8,293.9 390.5,293.9 392.2,288.6 393.9,290 395.6,292.9 397.3,287.1 399,291.9 400.7,297.7 402.4,296.3 404.1,295.8 
			405.8,294.3 407.5,293.4 409.2,293.9 410.9,299.6 412.6,300.1 414.3,298.7 416,300.6 417.7,299.6 419.4,297.7 421.1,298.2 
			422.8,300.6 424.5,300.6 426.2,300.6 427.9,301.5 429.6,299.6 431.3,299.1 433,296.3 434.7,295.8 436.4,299.1 438.1,298.2 
			439.8,298.2 441.5,295.8 443.2,300.1 444.9,296.7 446.6,293.4 448.3,292.9 450,292.4 451.7,296.7 453.4,299.6 455.1,298.7 
			456.8,301.1 458.5,301.5 460.2,300.6 461.9,301.5 463.6,302.5 465.3,302.5 467,302.5 468.7,301.5 470.4,302 472.1,302 473.8,302 
			475.5,301.1 477.2,300.1 478.9,299.1 480.6,298.7 482.3,294.3 484,294.8 485.7,295.8 487.4,289.1 489.1,283.8 490.8,289.1 
			492.5,289.1 494.2,289.5 495.9,292.9 497.6,299.1 499.3,301.1 501,301.1 502.7,299.1 504.4,302 506.1,299.6 507.8,300.6 
			509.5,300.1 511.2,300.6 512.9,298.2 514.6,301.1 516.3,302 518,302.5 519.7,302.5 521.4,302 523.1,302 524.8,301.5 526.5,301.1 
			528.2,300.6 529.9,300.6 531.6,302.5 533.3,302 535,302.5 536.7,301.5 538.4,302.5 540.1,301.1 541.8,299.6 543.5,298.7 
			545.2,300.6 546.9,294.8 548.6,289.1 550.3,291.5 552,285.2 553.7,292.4 555.4,291 557.1,293.9 558.8,296.3 560.5,294.3 
			562.2,294.3 563.9,293.9 565.6,297.2 567.3,294.8 569,291 570.7,292.9 572.4,297.2 574.1,298.2 575.8,298.7 577.5,296.7 
			579.2,297.7 580.9,296.3 582.6,297.2 584.3,300.6 586,299.1 587.7,294.3 589.4,296.7 591.1,291 592.8,291 594.5,287.6 
			596.2,283.8 597.9,288.1 599.6,275.1 601.3,266.5 603,256.9 604.7,264.1 606.4,259.3 608.1,266 609.8,259.8 611.5,271.3 
			613.2,269.9 614.9,261.7 616.6,261.2 618.3,260.3 620,249.2 621.7,239.1 623.4,224.7 625.1,228.6 626.8,229.5 628.5,229.5 
			630.2,248.7 631.9,245.4 633.6,248.3 635.3,245.9 637,255 638.7,261.2 640.4,262.2 642.1,262.7 643.8,252.6 645.5,253.1 
			647.2,247.8 648.9,250.7 650.6,259.8 652.3,258.8 654,242.5 655.7,243 657.4,244.4 659.1,249.7 660.8,246.3 662.5,253.5 
			664.2,243.9 665.9,238.7 667.6,228.6 669.3,218.5 671,218.5 672.7,219.5 674.4,222.3 676.1,201.7 677.8,204.6 679.5,210.8 
			681.2,207.5 682.9,207.5 684.6,219.9 686.3,223.3 688,226.7 689.7,213.7 691.4,219 693.1,215.1 694.8,217.5 696.5,207 
			698.2,209.9 699.9,217.1 701.6,210.8 703.3,213.2 705,220.9 706.7,225.2 708.4,231 710.1,224.7 711.8,226.2 713.5,215.1 
			715.2,202.2 716.9,207 718.6,200.3 720.3,194.5 722,190.2 723.7,180.1 725.4,160.9 727.1,165.2 728.8,165.2 730.5,163.8 
			732.2,171.5 733.9,182.5 735.6,172.9 737.3,170.5 739,173.9 740.7,171.9 742.4,142.2 744.1,153.7 745.8,162.8 747.5,166.7 
			749.2,155.1 750.9,160.9 752.6,169.1 754.3,161.9 756,147 757.7,163.8 759.4,151.3 761.1,173.9 762.8,188.7 764.5,191.1 
			766.2,183 767.9,193.5 769.6,183 771.3,204.6 773,201.2 774.7,192.1 776.4,187.3 778.1,188.7 779.8,203.1 781.5,198.8 783.2,194 
			784.9,203.1 786.6,193.1 788.3,191.6 790,182.5 791.7,195.5 793.4,177.7 795.1,201.7 796.8,216.6 798.5,223.3 800.2,231 
			801.9,233.9 803.6,248.7 805.3,233.9 807,231 808.7,242 810.4,243 812.1,246.8 813.8,248.7 815.5,246.8 817.2,240.6 818.9,247.3 
			820.6,243 822.3,242.5 824,242.5 825.7,243.9 827.4,231.9 829.1,225.7 830.8,240.6 832.5,249.7 834.2,243 835.9,235.3 
			837.6,225.2 839.3,230 841,219.5 842.7,205.5 844.4,211.3 846.1,199.8 847.8,200.3 849.5,194.5 851.2,201.7 852.9,201.2 
			854.6,213.2 856.3,215.1 858,205.5 859.7,205.5 861.4,206.5 863.1,207.9 864.8,198.3 866.5,192.6 868.2,193.5 869.9,191.6 
			871.6,184.9 873.3,194.5 875,202.2 876.7,196.9 878.4,190.2 880.1,192.6 881.8,197.9 883.5,191.1 885.2,202.7 886.9,209.4 
			888.6,206 		"/>
		<polyline class="st3" points="40.3,269.9 42,278 43.7,286.2 45.4,278 47.1,281.9 48.8,279.5 50.5,277.1 52.2,282.8 53.9,290 
			55.6,291 57.3,293.9 59,288.6 60.7,290.5 62.4,286.7 64.1,293.9 65.8,287.1 67.5,291.9 69.2,291 70.9,295.8 72.6,296.3 
			74.3,297.7 76,298.7 77.7,300.6 79.4,298.2 81.1,295.3 82.8,294.8 84.5,287.6 86.2,289.5 87.9,293.4 89.6,289.5 91.3,291.5 
			93,292.4 94.7,287.1 96.4,291.5 98.1,279.9 99.8,278.5 101.5,279.9 103.2,268.4 104.9,269.9 106.6,274.7 108.3,274.2 110,274.2 
			111.7,267.5 113.4,259.8 115.1,259.8 116.8,265.5 118.5,261.7 120.2,277.1 121.9,286.7 123.6,277.5 125.3,270.8 127,263.6 
			128.7,267.9 130.4,272.3 132.1,270.8 133.8,271.8 135.5,277.5 137.2,272.7 138.9,278.5 140.6,276.1 142.3,277.5 144,280.9 
			145.7,288.6 147.4,290 149.1,281.4 150.8,279.9 152.5,287.1 154.2,288.1 155.9,284.7 157.6,286.7 159.3,286.7 161,290.5 
			162.7,297.2 164.4,300.1 166.1,300.6 167.8,297.2 169.5,295.8 171.2,295.8 172.9,296.3 174.6,294.3 176.3,296.3 178,297.7 
			179.7,295.8 181.4,292.9 183.1,295.8 184.8,295.8 186.5,301.5 188.2,302 189.9,301.1 191.6,300.1 193.3,300.1 195,301.5 
			196.7,300.1 198.4,300.1 200.1,301.1 201.8,301.1 203.5,298.2 205.2,300.6 206.9,298.2 208.6,294.3 210.3,297.7 212,295.3 
			213.7,289.1 215.4,290 217.1,292.9 218.8,288.6 220.5,291.5 222.2,293.4 223.9,292.4 225.6,291.5 227.3,295.3 229,292.4 
			230.7,288.6 232.4,290.5 234.1,287.6 235.8,274.7 237.5,277.5 239.2,267.9 240.9,270.3 242.6,273.7 244.3,268.9 246,270.8 
			247.7,262.7 249.4,271.3 251.1,274.2 252.8,268.4 254.5,254.5 256.2,243.9 257.9,244.4 259.6,236.7 261.3,227.6 263,219.9 
			264.7,221.9 266.4,238.2 268.1,255.9 269.8,252.1 271.5,249.2 273.2,239.1 274.9,251.6 276.6,254.5 278.3,255 280,257.9 
			281.7,252.6 283.4,246.8 285.1,255.5 286.8,257.9 288.5,267.9 290.2,264.6 291.9,255.9 293.6,241.1 295.3,228.6 297,247.3 
			298.7,247.3 300.4,255.9 302.1,253.1 303.8,255.9 305.5,257.9 307.2,253.1 308.9,268.9 310.6,276.6 312.3,267 314,255.5 
			315.7,267.5 317.4,267.5 319.1,263.6 320.8,271.8 322.5,276.1 324.2,278 325.9,286.2 327.6,293.9 329.3,291.9 331,291 
			332.7,291.9 334.4,294.8 336.1,294.8 337.8,301.5 339.5,302.5 341.2,302 342.9,301.1 344.6,300.6 346.3,298.7 348,295.8 
			349.7,291 351.4,283.8 353.1,277.1 354.8,275.6 356.5,271.8 358.2,270.3 359.9,258.8 361.6,258.3 363.3,255.5 365,263.6 
			366.7,267 368.4,261.2 370.1,265.5 371.8,274.2 373.5,284.3 375.2,286.2 376.9,287.1 378.6,281.4 380.3,278.5 382,266.5 
			383.7,264.6 385.4,267.5 387.1,275.6 388.8,276.1 390.5,279.9 392.2,287.1 393.9,283.8 395.6,290.5 397.3,289.1 399,291.5 
			400.7,289.1 402.4,282.8 404.1,289.5 405.8,280.4 407.5,267.9 409.2,278.5 410.9,281.4 412.6,271.8 414.3,267.9 416,276.1 
			417.7,286.2 419.4,284.7 421.1,280.9 422.8,276.6 424.5,274.7 426.2,278.5 427.9,277.1 429.6,276.1 431.3,276.1 433,269.4 
			434.7,255 436.4,257.9 438.1,260.3 439.8,260.7 441.5,259.3 443.2,254.5 444.9,252.1 446.6,236.7 448.3,227.1 450,224.7 
			451.7,227.1 453.4,227.1 455.1,221.4 456.8,217.1 458.5,210.3 460.2,205.5 461.9,203.6 463.6,211.3 465.3,234.3 467,234.3 
			468.7,227.1 470.4,222.3 472.1,224.3 473.8,240.6 475.5,237.2 477.2,238.2 478.9,225.7 480.6,231.9 482.3,234.8 484,236.3 
			485.7,235.3 487.4,224.7 489.1,223.8 490.8,217.1 492.5,210.8 494.2,213.7 495.9,216.1 497.6,205.5 499.3,212.7 501,213.2 
			502.7,200.7 504.4,217.1 506.1,219 507.8,224.7 509.5,226.7 511.2,234.3 512.9,243.9 514.6,243.9 516.3,251.6 518,253.5 
			519.7,241.5 521.4,243.9 523.1,241.1 524.8,247.3 526.5,245.4 528.2,241.1 529.9,249.2 531.6,249.7 533.3,249.7 535,246.8 
			536.7,241.5 538.4,247.3 540.1,248.7 541.8,252.1 543.5,259.3 545.2,257.4 546.9,253.5 548.6,267 550.3,279 552,279.9 
			553.7,285.2 555.4,291.5 557.1,286.7 558.8,285.2 560.5,284.7 562.2,287.6 563.9,280.9 565.6,274.2 567.3,277.5 569,277.1 
			570.7,260.7 572.4,264.1 574.1,264.1 575.8,269.9 577.5,260.7 579.2,260.7 580.9,264.1 582.6,270.3 584.3,284.3 586,282.3 
			587.7,281.9 589.4,287.1 591.1,287.1 592.8,287.1 594.5,284.3 596.2,287.1 597.9,284.7 599.6,291.5 601.3,290.5 603,291.9 
			604.7,291 606.4,293.9 608.1,290 609.8,290.5 611.5,283.8 613.2,289.5 614.9,292.9 616.6,290.5 618.3,290.5 620,289.1 
			621.7,292.9 623.4,291.5 625.1,293.4 626.8,291.5 628.5,287.6 630.2,295.3 631.9,291.5 633.6,287.6 635.3,292.4 637,293.4 
			638.7,287.1 640.4,287.6 642.1,279 643.8,286.2 645.5,283.8 647.2,291.9 648.9,288.1 650.6,287.1 652.3,286.7 654,289.5 
			655.7,277.1 657.4,271.8 659.1,267.5 660.8,257.9 662.5,242.5 664.2,252.1 665.9,251.6 667.6,258.3 669.3,270.8 671,269.9 
			672.7,272.3 674.4,279.9 676.1,285.7 677.8,288.1 679.5,286.7 681.2,290 682.9,291.9 684.6,297.2 686.3,300.6 688,302 689.7,302 
			691.4,301.5 693.1,302.5 694.8,302 696.5,302 698.2,301.5 699.9,302 701.6,302.5 703.3,302.5 705,302 706.7,302.5 708.4,301.5 
			710.1,300.6 711.8,301.1 713.5,300.1 715.2,302.5 716.9,302 718.6,302 720.3,302.5 722,302.5 723.7,302.5 725.4,302.5 
			727.1,302.5 728.8,302.5 730.5,301.5 732.2,300.1 733.9,297.7 735.6,296.7 737.3,298.2 739,296.7 740.7,302 742.4,302 
			744.1,302.5 745.8,302 747.5,302 749.2,301.5 750.9,302.5 752.6,302.5 754.3,302 756,300.6 757.7,302.5 759.4,302 761.1,301.5 
			762.8,302 764.5,302.5 766.2,302.5 767.9,302.5 769.6,302.5 771.3,302.5 773,302 774.7,302.5 776.4,302.5 778.1,302 779.8,300.6 
			781.5,301.1 783.2,301.5 784.9,302.5 786.6,302.5 788.3,301.1 790,301.5 791.7,300.6 793.4,301.1 795.1,302 796.8,300.6 
			798.5,298.2 800.2,295.3 801.9,294.8 803.6,293.9 805.3,296.7 807,298.2 808.7,298.2 810.4,297.7 812.1,296.7 813.8,299.1 
			815.5,296.7 817.2,297.7 818.9,291 820.6,290 822.3,290.5 824,295.3 825.7,296.7 827.4,291 829.1,294.8 830.8,292.4 832.5,299.1 
			834.2,299.1 835.9,298.7 837.6,298.7 839.3,297.7 841,299.1 842.7,300.6 844.4,301.1 846.1,298.7 847.8,297.7 849.5,300.1 
			851.2,298.7 852.9,298.2 854.6,299.6 856.3,297.7 858,295.3 859.7,294.8 861.4,289.5 863.1,286.7 864.8,286.2 866.5,286.2 
			868.2,285.7 869.9,282.8 871.6,286.2 873.3,285.7 875,281.9 876.7,284.3 878.4,281.9 880.1,280.4 881.8,278 883.5,274.7 
			885.2,278 886.9,277.1 888.6,280.9 		"/>
		<polyline class="st4" points="40.3,272.7 42,270.8 43.7,265.5 45.4,273.2 47.1,284.7 48.8,290.5 50.5,292.9 52.2,298.2 
			53.9,297.2 55.6,296.7 57.3,295.3 59,291.9 60.7,290 62.4,291 64.1,292.4 65.8,297.7 67.5,299.1 69.2,294.3 70.9,297.7 
			72.6,295.8 74.3,299.6 76,297.7 77.7,300.1 79.4,297.7 81.1,300.6 82.8,302.5 84.5,302 86.2,302.5 87.9,302.5 89.6,301.5 
			91.3,297.2 93,299.1 94.7,301.5 96.4,301.5 98.1,300.6 99.8,299.1 101.5,294.8 103.2,296.3 104.9,287.6 106.6,290.5 108.3,290.5 
			110,299.1 111.7,297.2 113.4,297.2 115.1,294.8 116.8,290 118.5,293.4 120.2,287.6 121.9,291 123.6,286.7 125.3,291.5 127,291.9 
			128.7,291 130.4,289.1 132.1,290.5 133.8,287.6 135.5,290.5 137.2,289.5 138.9,285.7 140.6,278.5 142.3,279.9 144,276.1 
			145.7,274.7 147.4,270.8 149.1,281.4 150.8,291 152.5,291.5 154.2,288.6 155.9,296.7 157.6,295.8 159.3,299.1 161,301.1 
			162.7,302 164.4,299.1 166.1,296.7 167.8,299.1 169.5,296.3 171.2,299.1 172.9,297.7 174.6,297.7 176.3,299.6 178,297.7 
			179.7,299.6 181.4,299.6 183.1,296.7 184.8,291.9 186.5,283.3 188.2,285.7 189.9,283.8 191.6,282.8 193.3,287.1 195,293.4 
			196.7,298.7 198.4,296.7 200.1,298.7 201.8,299.6 203.5,301.1 205.2,298.2 206.9,300.1 208.6,302.5 210.3,302.5 212,302.5 
			213.7,302 215.4,302.5 217.1,302.5 218.8,301.5 220.5,302 222.2,300.6 223.9,298.2 225.6,296.7 227.3,297.2 229,293.4 
			230.7,291.5 232.4,291.5 234.1,291.5 235.8,289.5 237.5,289.1 239.2,289.1 240.9,285.2 242.6,280.9 244.3,278.5 246,276.6 
			247.7,280.4 249.4,279.9 251.1,278.5 252.8,268.4 254.5,277.5 256.2,279 257.9,285.7 259.6,287.1 261.3,288.1 263,280.9 
			264.7,287.6 266.4,287.6 268.1,286.2 269.8,287.1 271.5,291.5 273.2,295.3 274.9,292.9 276.6,286.2 278.3,286.2 280,285.7 
			281.7,286.7 283.4,281.4 285.1,281.9 286.8,286.2 288.5,280.9 290.2,282.8 291.9,279 293.6,283.3 295.3,283.3 297,280.4 
			298.7,283.3 300.4,287.1 302.1,285.2 303.8,287.1 305.5,283.8 307.2,285.2 308.9,287.1 310.6,283.8 312.3,283.8 314,281.9 
			315.7,277.5 317.4,280.9 319.1,277.1 320.8,280.4 322.5,275.1 324.2,264.6 325.9,260.3 327.6,258.8 329.3,264.6 331,268.4 
			332.7,275.6 334.4,280.4 336.1,275.6 337.8,285.7 339.5,285.2 341.2,279 342.9,284.3 344.6,284.7 346.3,286.7 348,283.3 
			349.7,279.9 351.4,284.3 353.1,278 354.8,276.1 356.5,267 358.2,267.9 359.9,281.4 361.6,266.5 363.3,272.3 365,268.4 
			366.7,267.9 368.4,272.3 370.1,267.9 371.8,264.6 373.5,258.3 375.2,246.8 376.9,253.5 378.6,247.3 380.3,249.7 382,254 
			383.7,235.3 385.4,216.6 387.1,215.6 388.8,211.8 390.5,224.7 392.2,227.6 393.9,226.7 395.6,228.6 397.3,245.4 399,259.3 
			400.7,261.2 402.4,262.2 404.1,245.4 405.8,235.3 407.5,243.5 409.2,233.9 410.9,227.6 412.6,234.8 414.3,236.3 416,233.4 
			417.7,232.4 419.4,219 421.1,218 422.8,213.2 424.5,219 426.2,213.7 427.9,221.4 429.6,246.3 431.3,234.8 433,237.2 434.7,249.2 
			436.4,261.7 438.1,255 439.8,261.2 441.5,264.1 443.2,273.7 444.9,270.8 446.6,266 448.3,273.7 450,274.2 451.7,274.2 453.4,278 
			455.1,274.7 456.8,268.4 458.5,268.9 460.2,262.7 461.9,271.3 463.6,268.9 465.3,264.6 467,254.5 468.7,260.3 470.4,266.5 
			472.1,280.4 473.8,279 475.5,281.4 477.2,272.3 478.9,284.7 480.6,277.5 482.3,278.5 484,284.3 485.7,272.3 487.4,272.7 
			489.1,279.9 490.8,272.7 492.5,273.2 494.2,281.9 495.9,286.7 497.6,291.9 499.3,290 501,297.7 502.7,299.1 504.4,300.6 
			506.1,299.6 507.8,295.8 509.5,291.9 511.2,291.5 512.9,292.9 514.6,290 516.3,278 518,279.5 519.7,282.8 521.4,273.7 
			523.1,273.7 524.8,262.2 526.5,260.3 528.2,267.5 529.9,261.2 531.6,280.9 533.3,289.5 535,289.5 536.7,295.8 538.4,292.9 
			540.1,295.8 541.8,293.9 543.5,291 545.2,292.9 546.9,286.7 548.6,275.1 550.3,268.4 552,270.8 553.7,269.4 555.4,274.7 
			557.1,276.6 558.8,274.7 560.5,285.7 562.2,287.6 563.9,288.6 565.6,290 567.3,291.9 569,272.7 570.7,275.1 572.4,279 
			574.1,270.8 575.8,279.5 577.5,273.7 579.2,277.1 580.9,274.7 582.6,280.4 584.3,288.1 586,285.2 587.7,289.5 589.4,298.2 
			591.1,296.7 592.8,295.8 594.5,294.3 596.2,292.4 597.9,289.1 599.6,284.3 601.3,290 603,290.5 604.7,284.7 606.4,279.5 
			608.1,277.5 609.8,279.9 611.5,287.1 613.2,286.2 614.9,289.1 616.6,292.4 618.3,292.4 620,290 621.7,289.5 623.4,297.2 
			625.1,289.1 626.8,285.7 628.5,291 630.2,291.9 631.9,292.4 633.6,281.4 635.3,280.9 637,271.3 638.7,275.1 640.4,278.5 
			642.1,286.2 643.8,282.3 645.5,284.3 647.2,275.1 648.9,277.1 650.6,273.2 652.3,266 654,278 655.7,270.3 657.4,267.9 
			659.1,269.4 660.8,266.5 662.5,276.1 664.2,280.9 665.9,279.9 667.6,275.1 669.3,283.3 671,286.7 672.7,279.5 674.4,278 
			676.1,292.4 677.8,290 679.5,294.8 681.2,297.2 682.9,297.7 684.6,299.6 686.3,299.6 688,300.6 689.7,294.3 691.4,290.5 
			693.1,294.3 694.8,291.9 696.5,294.8 698.2,296.3 699.9,294.8 701.6,295.8 703.3,298.7 705,299.1 706.7,302 708.4,301.1 
			710.1,301.1 711.8,300.6 713.5,301.5 715.2,301.1 716.9,301.5 718.6,301.1 720.3,301.5 722,302.5 723.7,302 725.4,302.5 
			727.1,302.5 728.8,302.5 730.5,302.5 732.2,302.5 733.9,302 735.6,302 737.3,302.5 739,298.7 740.7,296.7 742.4,299.1 
			744.1,296.7 745.8,299.1 747.5,298.2 749.2,295.3 750.9,293.4 752.6,296.7 754.3,296.3 756,299.1 757.7,294.8 759.4,289.1 
			761.1,284.3 762.8,288.6 764.5,288.6 766.2,286.2 767.9,281.4 769.6,283.8 771.3,280.9 773,292.4 774.7,294.8 776.4,296.3 
			778.1,298.7 779.8,300.6 781.5,291.5 783.2,294.8 784.9,295.3 786.6,289.5 788.3,290 790,294.8 791.7,298.2 793.4,300.1 
			795.1,300.6 796.8,299.6 798.5,296.3 800.2,299.1 801.9,302.5 803.6,302.5 805.3,302.5 807,302.5 808.7,302.5 810.4,301.1 
			812.1,302.5 813.8,302.5 815.5,301.5 817.2,301.1 818.9,302 820.6,301.5 822.3,302 824,301.1 825.7,302 827.4,302 829.1,301.1 
			830.8,301.1 832.5,301.1 834.2,301.1 835.9,300.6 837.6,296.7 839.3,298.2 841,297.2 842.7,295.8 844.4,293.4 846.1,293.4 
			847.8,294.8 849.5,296.7 851.2,294.8 852.9,292.4 854.6,292.4 856.3,290.5 858,287.1 859.7,288.1 861.4,291.5 863.1,284.3 
			864.8,286.2 866.5,281.4 868.2,282.8 869.9,281.9 871.6,281.9 873.3,283.8 875,286.2 876.7,277.5 878.4,278 880.1,278 
			881.8,283.3 883.5,286.2 885.2,284.3 886.9,289.5 888.6,290 		"/>
		<polyline class="st5" points="40.3,275.1 42,273.2 43.7,265.1 45.4,263.1 47.1,264.1 48.8,260.7 50.5,253.5 52.2,236.3 
			53.9,214.7 55.6,215.1 57.3,214.2 59,201.7 60.7,179.6 62.4,199.3 64.1,187.8 65.8,194.5 67.5,186.8 69.2,201.2 70.9,209.4 
			72.6,226.7 74.3,208.4 76,208.4 77.7,198.8 79.4,189.7 81.1,186.3 82.8,175.8 84.5,171 86.2,168.6 87.9,165.2 89.6,167.6 
			91.3,183.5 93,181.5 94.7,195.5 96.4,201.7 98.1,223.3 99.8,234.3 101.5,223.8 103.2,236.7 104.9,242 106.6,237.2 108.3,224.7 
			110,210.8 111.7,235.3 113.4,237.2 115.1,243.9 116.8,225.2 118.5,234.8 120.2,223.8 121.9,218 123.6,221.9 125.3,228.1 
			127,239.6 128.7,237.7 130.4,236.7 132.1,243.9 133.8,242 135.5,241.1 137.2,236.3 138.9,237.7 140.6,231.9 142.3,228.1 
			144,228.6 145.7,229.5 147.4,227.1 149.1,243 150.8,243 152.5,256.9 154.2,266 155.9,268.4 157.6,266.5 159.3,258.3 161,254.5 
			162.7,245.4 164.4,262.2 166.1,272.7 167.8,272.3 169.5,274.7 171.2,273.7 172.9,264.6 174.6,262.7 176.3,268.4 178,274.2 
			179.7,277.5 181.4,266.5 183.1,274.7 184.8,270.3 186.5,262.7 188.2,260.7 189.9,266 191.6,267 193.3,270.3 195,279 196.7,286.7 
			198.4,279 200.1,270.8 201.8,263.6 203.5,265.5 205.2,251.1 206.9,254.5 208.6,265.1 210.3,267 212,267.5 213.7,262.2 
			215.4,265.5 217.1,271.3 218.8,270.8 220.5,273.2 222.2,283.8 223.9,282.3 225.6,272.7 227.3,277.5 229,277.1 230.7,279 
			232.4,276.1 234.1,273.7 235.8,283.8 237.5,277.1 239.2,279.9 240.9,272.7 242.6,270.8 244.3,277.5 246,281.9 247.7,286.2 
			249.4,276.6 251.1,282.3 252.8,279.5 254.5,279.9 256.2,286.2 257.9,291.5 259.6,292.4 261.3,289.1 263,289.1 264.7,283.3 
			266.4,279.9 268.1,271.3 269.8,265.1 271.5,285.7 273.2,286.7 274.9,285.2 276.6,286.7 278.3,277.5 280,272.7 281.7,262.2 
			283.4,261.7 285.1,258.3 286.8,240.1 288.5,245.9 290.2,258.3 291.9,255.5 293.6,260.3 295.3,260.7 297,248.3 298.7,245.4 
			300.4,244.9 302.1,238.2 303.8,231.5 305.5,237.2 307.2,238.7 308.9,246.3 310.6,242.5 312.3,234.3 314,225.2 315.7,221.4 
			317.4,227.1 319.1,222.8 320.8,213.7 322.5,215.1 324.2,220.4 325.9,211.3 327.6,215.6 329.3,228.6 331,240.6 332.7,246.3 
			334.4,249.7 336.1,249.2 337.8,256.9 339.5,267.5 341.2,253.1 342.9,245.4 344.6,242.5 346.3,223.8 348,209.4 349.7,215.6 
			351.4,207.5 353.1,220.4 354.8,210.8 356.5,215.6 358.2,213.7 359.9,201.7 361.6,213.7 363.3,213.7 365,220.4 366.7,211.8 
			368.4,221.4 370.1,212.3 371.8,220.4 373.5,213.7 375.2,205.5 376.9,219 378.6,230.5 380.3,230.5 382,231.5 383.7,261.2 
			385.4,261.7 387.1,259.3 388.8,268.9 390.5,258.3 392.2,261.2 393.9,266 395.6,260.3 397.3,260.3 399,254.5 400.7,259.3 
			402.4,258.3 404.1,267 405.8,278 407.5,275.6 409.2,268.4 410.9,265.5 412.6,273.7 414.3,277.1 416,275.6 417.7,276.1 
			419.4,283.8 421.1,293.4 422.8,285.7 424.5,282.3 426.2,285.7 427.9,285.7 429.6,290 431.3,290 433,289.5 434.7,292.9 
			436.4,296.3 438.1,295.8 439.8,296.7 441.5,299.1 443.2,299.1 444.9,299.1 446.6,296.3 448.3,291 450,293.4 451.7,290.5 
			453.4,287.1 455.1,291 456.8,296.3 458.5,298.2 460.2,294.3 461.9,291 463.6,287.6 465.3,294.8 467,296.3 468.7,299.6 
			470.4,299.6 472.1,299.6 473.8,296.7 475.5,295.8 477.2,298.2 478.9,297.7 480.6,295.8 482.3,291.9 484,290 485.7,287.6 
			487.4,284.3 489.1,281.9 490.8,274.7 492.5,267.9 494.2,266.5 495.9,268.9 497.6,267 499.3,274.2 501,277.5 502.7,284.7 
			504.4,284.7 506.1,278.5 507.8,280.9 509.5,283.3 511.2,282.8 512.9,291.5 514.6,285.7 516.3,286.2 518,288.1 519.7,291.5 
			521.4,295.8 523.1,295.3 524.8,298.2 526.5,299.1 528.2,296.3 529.9,296.7 531.6,287.1 533.3,289.5 535,291.5 536.7,297.7 
			538.4,301.5 540.1,300.6 541.8,298.7 543.5,296.3 545.2,297.7 546.9,294.8 548.6,293.9 550.3,292.4 552,291.9 553.7,290.5 
			555.4,287.1 557.1,293.4 558.8,295.8 560.5,298.2 562.2,298.7 563.9,301.1 565.6,302.5 567.3,302 569,302.5 570.7,301.1 
			572.4,302 574.1,301.1 575.8,301.5 577.5,301.5 579.2,302.5 580.9,302 582.6,301.5 584.3,300.6 586,302.5 587.7,302 589.4,301.1 
			591.1,299.1 592.8,297.7 594.5,298.7 596.2,296.7 597.9,297.2 599.6,298.2 601.3,299.1 603,294.3 604.7,298.7 606.4,299.6 
			608.1,302.5 609.8,302 611.5,301.1 613.2,302.5 614.9,302 616.6,302.5 618.3,302 620,302.5 621.7,302.5 623.4,302.5 625.1,302.5 
			626.8,302.5 628.5,302 630.2,300.6 631.9,301.1 633.6,301.1 635.3,300.1 637,299.1 638.7,300.6 640.4,302.5 642.1,302.5 
			643.8,302.5 645.5,302 647.2,302 648.9,301.1 650.6,301.1 652.3,294.3 654,295.8 655.7,296.7 657.4,296.7 659.1,299.6 
			660.8,300.6 662.5,298.2 664.2,291.9 665.9,292.9 667.6,295.8 669.3,290.5 671,285.7 672.7,274.7 674.4,273.2 676.1,280.9 
			677.8,281.4 679.5,288.1 681.2,285.7 682.9,279.9 684.6,278.5 686.3,283.8 688,289.1 689.7,291.9 691.4,290.5 693.1,285.7 
			694.8,287.1 696.5,285.7 698.2,289.1 699.9,279.9 701.6,273.2 703.3,268.9 705,264.6 706.7,257.4 708.4,267.9 710.1,268.9 
			711.8,270.8 713.5,274.2 715.2,279.9 716.9,278.5 718.6,279 720.3,282.8 722,281.9 723.7,281.9 725.4,289.5 727.1,293.4 
			728.8,295.3 730.5,298.7 732.2,299.1 733.9,298.2 735.6,300.1 737.3,302.5 739,301.5 740.7,302.5 742.4,302.5 744.1,302 
			745.8,301.1 747.5,302 749.2,302 750.9,300.6 752.6,300.6 754.3,302 756,302.5 757.7,301.5 759.4,302 761.1,301.1 762.8,301.1 
			764.5,300.6 766.2,302.5 767.9,301.1 769.6,300.1 771.3,299.6 773,300.1 774.7,302 776.4,299.6 778.1,298.7 779.8,301.1 
			781.5,301.1 783.2,302.5 784.9,302 786.6,302 788.3,302.5 790,302.5 791.7,300.6 793.4,299.1 795.1,300.6 796.8,302.5 
			798.5,301.5 800.2,300.6 801.9,301.5 803.6,298.7 805.3,299.1 807,293.9 808.7,296.3 810.4,298.2 812.1,295.8 813.8,298.7 
			815.5,295.3 817.2,297.2 818.9,298.7 820.6,299.6 822.3,292.9 824,296.7 825.7,298.2 827.4,300.1 829.1,298.7 830.8,294.3 
			832.5,293.9 834.2,295.3 835.9,296.7 837.6,290 839.3,290 841,291.5 842.7,294.3 844.4,296.3 846.1,297.2 847.8,297.2 
			849.5,297.7 851.2,296.3 852.9,298.2 854.6,296.3 856.3,294.8 858,295.8 859.7,295.8 861.4,297.2 863.1,296.3 864.8,296.7 
			866.5,297.7 868.2,299.6 869.9,301.5 871.6,298.7 873.3,299.6 875,300.1 876.7,301.5 878.4,302 880.1,302 881.8,300.6 
			883.5,299.1 885.2,298.7 886.9,300.1 888.6,301.5 		"/>
		<polyline class="st6" points="40.3,272.7 42,250.2 43.7,263.6 45.4,264.6 47.1,267.5 48.8,274.2 50.5,278 52.2,284.3 53.9,285.2 
			55.6,281.9 57.3,277.1 59,281.9 60.7,279 62.4,274.2 64.1,286.7 65.8,290 67.5,291.5 69.2,295.8 70.9,290.5 72.6,287.6 
			74.3,287.6 76,289.1 77.7,289.5 79.4,288.1 81.1,287.6 82.8,286.2 84.5,290.5 86.2,290 87.9,296.3 89.6,293.9 91.3,290 93,281.4 
			94.7,272.3 96.4,272.7 98.1,259.8 99.8,264.6 101.5,274.2 103.2,279.5 104.9,277.5 106.6,282.3 108.3,284.7 110,281.4 
			111.7,287.1 113.4,281.4 115.1,281.4 116.8,282.8 118.5,282.3 120.2,282.3 121.9,277.5 123.6,281.9 125.3,278 127,278.5 
			128.7,278 130.4,272.3 132.1,256.9 133.8,263.1 135.5,257.9 137.2,254.5 138.9,250.7 140.6,256.4 142.3,260.3 144,255.9 
			145.7,245.4 147.4,247.8 149.1,243.9 150.8,247.3 152.5,241.1 154.2,247.3 155.9,249.2 157.6,241.1 159.3,241.5 161,250.2 
			162.7,253.1 164.4,261.7 166.1,236.3 167.8,234.3 169.5,242.5 171.2,240.1 172.9,260.7 174.6,268.9 176.3,269.4 178,271.3 
			179.7,276.1 181.4,275.1 183.1,271.8 184.8,266 186.5,275.1 188.2,280.9 189.9,265.5 191.6,274.2 193.3,275.1 195,274.2 
			196.7,270.3 198.4,274.7 200.1,268.9 201.8,267.5 203.5,269.9 205.2,267 206.9,257.9 208.6,252.6 210.3,240.1 212,234.3 
			213.7,238.2 215.4,242.5 217.1,245.9 218.8,243 220.5,219.9 222.2,199.8 223.9,195.9 225.6,208.9 227.3,215.1 229,215.6 
			230.7,231 232.4,231.5 234.1,228.6 235.8,216.6 237.5,216.6 239.2,220.4 240.9,229.1 242.6,217.5 244.3,227.1 246,217.5 
			247.7,216.1 249.4,197.9 251.1,208.9 252.8,220.4 254.5,231 256.2,237.2 257.9,239.6 259.6,247.3 261.3,255.9 263,276.6 
			264.7,276.6 266.4,271.3 268.1,271.3 269.8,262.2 271.5,254.5 273.2,251.6 274.9,267 276.6,255.9 278.3,256.9 280,269.4 
			281.7,265.5 283.4,266.5 285.1,279.9 286.8,276.1 288.5,282.8 290.2,281.4 291.9,289.1 293.6,278.5 295.3,287.1 297,284.7 
			298.7,280.4 300.4,277.5 302.1,276.1 303.8,281.4 305.5,283.3 307.2,274.7 308.9,280.4 310.6,284.7 312.3,285.2 314,287.1 
			315.7,286.7 317.4,278.5 319.1,277.5 320.8,279.9 322.5,284.3 324.2,291 325.9,298.2 327.6,299.1 329.3,301.1 331,298.7 
			332.7,296.3 334.4,295.3 336.1,300.1 337.8,302 339.5,302 341.2,302 342.9,301.1 344.6,302 346.3,300.1 348,301.1 349.7,299.6 
			351.4,292.9 353.1,284.7 354.8,280.9 356.5,281.4 358.2,287.1 359.9,296.3 361.6,299.1 363.3,296.3 365,292.4 366.7,294.3 
			368.4,290 370.1,296.3 371.8,297.7 373.5,298.7 375.2,301.5 376.9,300.6 378.6,300.1 380.3,300.1 382,300.1 383.7,294.8 
			385.4,298.7 387.1,298.7 388.8,295.3 390.5,291.5 392.2,294.3 393.9,296.7 395.6,297.7 397.3,292.9 399,297.2 400.7,293.9 
			402.4,294.8 404.1,295.8 405.8,295.8 407.5,296.7 409.2,298.7 410.9,301.1 412.6,293.9 414.3,297.2 416,298.2 417.7,301.5 
			419.4,302.5 421.1,302 422.8,302.5 424.5,302.5 426.2,302 427.9,301.5 429.6,299.1 431.3,299.6 433,299.6 434.7,298.7 
			436.4,296.7 438.1,299.6 439.8,300.6 441.5,301.5 443.2,302 444.9,302 446.6,301.5 448.3,301.5 450,301.5 451.7,301.1 
			453.4,300.6 455.1,301.5 456.8,301.1 458.5,300.1 460.2,300.6 461.9,302.5 463.6,302 465.3,298.7 467,300.1 468.7,300.1 
			470.4,298.2 472.1,292.4 473.8,291 475.5,291.5 477.2,292.9 478.9,297.2 480.6,297.2 482.3,292.4 484,288.6 485.7,288.6 
			487.4,288.6 489.1,283.8 490.8,281.9 492.5,279 494.2,277.1 495.9,271.3 497.6,274.7 499.3,272.7 501,268.4 502.7,277.1 
			504.4,275.6 506.1,284.7 507.8,282.8 509.5,288.6 511.2,292.9 512.9,292.4 514.6,291.9 516.3,296.7 518,296.7 519.7,291.5 
			521.4,292.4 523.1,291.5 524.8,294.8 526.5,297.7 528.2,298.7 529.9,301.1 531.6,302 533.3,302 535,302.5 536.7,302.5 538.4,302 
			540.1,300.6 541.8,302 543.5,302.5 545.2,302.5 546.9,300.6 548.6,302 550.3,297.2 552,296.3 553.7,298.2 555.4,293.9 
			557.1,291.9 558.8,292.4 560.5,289.1 562.2,294.3 563.9,299.1 565.6,298.7 567.3,298.2 569,300.1 570.7,300.1 572.4,301.5 
			574.1,301.5 575.8,302.5 577.5,302.5 579.2,302.5 580.9,302.5 582.6,302.5 584.3,300.1 586,299.6 587.7,298.2 589.4,299.6 
			591.1,300.1 592.8,294.3 594.5,297.2 596.2,298.7 597.9,299.6 599.6,300.1 601.3,299.1 603,297.7 604.7,298.7 606.4,301.5 
			608.1,302 609.8,302 611.5,302.5 613.2,302 614.9,301.5 616.6,302.5 618.3,302 620,301.5 621.7,301.5 623.4,301.5 625.1,301.1 
			626.8,300.6 628.5,302 630.2,302.5 631.9,302.5 633.6,299.6 635.3,300.1 637,299.1 638.7,300.6 640.4,299.1 642.1,298.2 
			643.8,299.6 645.5,300.6 647.2,301.1 648.9,301.5 650.6,302.5 652.3,302.5 654,302.5 655.7,302.5 657.4,302 659.1,302 
			660.8,302.5 662.5,302.5 664.2,302.5 665.9,301.5 667.6,301.5 669.3,302 671,302 672.7,301.5 674.4,299.1 676.1,299.6 
			677.8,295.3 679.5,298.7 681.2,301.1 682.9,301.1 684.6,302.5 686.3,302 688,302.5 689.7,302.5 691.4,301.5 693.1,299.1 
			694.8,299.1 696.5,301.1 698.2,301.1 699.9,301.1 701.6,301.5 703.3,301.5 705,302.5 706.7,300.1 708.4,299.1 710.1,297.7 
			711.8,292.9 713.5,295.3 715.2,293.9 716.9,297.2 718.6,295.8 720.3,296.3 722,292.9 723.7,297.7 725.4,298.7 727.1,290.5 
			728.8,293.4 730.5,300.6 732.2,300.1 733.9,298.2 735.6,298.2 737.3,294.8 739,293.9 740.7,295.3 742.4,297.2 744.1,293.9 
			745.8,281.4 747.5,279.9 749.2,276.6 750.9,276.6 752.6,270.8 754.3,282.3 756,283.8 757.7,286.7 759.4,286.7 761.1,288.6 
			762.8,285.7 764.5,278.5 766.2,283.8 767.9,284.3 769.6,292.9 771.3,294.3 773,291.5 774.7,289.5 776.4,296.3 778.1,300.1 
			779.8,301.5 781.5,302.5 783.2,302 784.9,300.6 786.6,302 788.3,299.6 790,296.3 791.7,296.7 793.4,297.7 795.1,295.8 
			796.8,299.1 798.5,297.7 800.2,297.7 801.9,300.1 803.6,297.7 805.3,296.7 807,295.3 808.7,298.7 810.4,298.2 812.1,297.7 
			813.8,299.6 815.5,299.6 817.2,302 818.9,301.1 820.6,302.5 822.3,302.5 824,302.5 825.7,302 827.4,302.5 829.1,302.5 
			830.8,300.6 832.5,299.1 834.2,299.6 835.9,298.7 837.6,298.2 839.3,295.8 841,299.1 842.7,299.1 844.4,299.6 846.1,302.5 
			847.8,302.5 849.5,302.5 851.2,302.5 852.9,302.5 854.6,302.5 856.3,301.5 858,301.5 859.7,297.7 861.4,290 863.1,288.1 
			864.8,284.3 866.5,273.2 868.2,272.7 869.9,262.7 871.6,258.8 873.3,257.4 875,262.7 876.7,262.7 878.4,264.6 880.1,261.7 
			881.8,258.3 883.5,278.5 885.2,268.4 886.9,269.9 888.6,270.3 		"/>
		<polyline class="st7" points="40.3,270.8 42,269.4 43.7,266 45.4,264.6 47.1,258.3 48.8,259.8 50.5,265.1 52.2,260.3 53.9,266.5 
			55.6,263.6 57.3,262.2 59,259.3 60.7,268.9 62.4,261.7 64.1,248.7 65.8,238.2 67.5,245.4 69.2,251.6 70.9,242.5 72.6,213.2 
			74.3,217.5 76,218.5 77.7,234.3 79.4,250.7 81.1,253.1 82.8,253.5 84.5,269.4 86.2,269.4 87.9,262.7 89.6,261.2 91.3,266.5 
			93,264.6 94.7,269.4 96.4,264.6 98.1,262.2 99.8,253.5 101.5,255 103.2,263.1 104.9,255.9 106.6,256.9 108.3,275.6 110,276.6 
			111.7,267.5 113.4,256.9 115.1,250.7 116.8,255.5 118.5,256.9 120.2,251.6 121.9,268.4 123.6,273.2 125.3,263.1 127,260.3 
			128.7,256.9 130.4,274.7 132.1,278.5 133.8,281.9 135.5,286.7 137.2,290 138.9,287.6 140.6,288.6 142.3,290.5 144,287.6 
			145.7,291.5 147.4,291 149.1,285.7 150.8,280.9 152.5,281.4 154.2,279.9 155.9,271.3 157.6,285.2 159.3,287.1 161,276.6 
			162.7,281.4 164.4,275.1 166.1,278 167.8,277.1 169.5,276.6 171.2,261.7 172.9,271.8 174.6,277.5 176.3,279.5 178,287.1 
			179.7,291.9 181.4,290 183.1,280.9 184.8,282.8 186.5,286.2 188.2,283.8 189.9,280.9 191.6,279.9 193.3,273.7 195,266 
			196.7,264.1 198.4,267.5 200.1,277.1 201.8,282.8 203.5,286.7 205.2,290.5 206.9,291.9 208.6,287.1 210.3,283.3 212,289.5 
			213.7,287.1 215.4,288.1 217.1,283.3 218.8,282.8 220.5,279.5 222.2,268.9 223.9,272.3 225.6,269.4 227.3,272.3 229,272.3 
			230.7,266.5 232.4,269.9 234.1,277.5 235.8,281.4 237.5,275.6 239.2,269.9 240.9,269.4 242.6,262.2 244.3,273.7 246,268.9 
			247.7,266.5 249.4,269.9 251.1,278.5 252.8,279.9 254.5,287.1 256.2,282.3 257.9,280.4 259.6,281.4 261.3,272.3 263,268.9 
			264.7,273.7 266.4,279.5 268.1,275.6 269.8,281.4 271.5,275.6 273.2,277.1 274.9,283.3 276.6,289.1 278.3,281.9 280,277.5 
			281.7,279 283.4,278 285.1,279 286.8,277.1 288.5,270.8 290.2,266 291.9,263.1 293.6,264.6 295.3,259.8 297,252.6 298.7,258.8 
			300.4,270.8 302.1,285.2 303.8,281.9 305.5,270.8 307.2,272.3 308.9,260.7 310.6,261.2 312.3,267.9 314,281.9 315.7,280.9 
			317.4,277.1 319.1,284.7 320.8,285.2 322.5,281.4 324.2,277.1 325.9,288.1 327.6,285.7 329.3,284.7 331,277.1 332.7,289.1 
			334.4,293.9 336.1,289.5 337.8,286.2 339.5,285.7 341.2,292.4 342.9,293.4 344.6,289.5 346.3,289.5 348,285.7 349.7,291 
			351.4,291.5 353.1,296.7 354.8,297.7 356.5,296.3 358.2,295.8 359.9,299.1 361.6,298.2 363.3,298.2 365,299.6 366.7,299.1 
			368.4,296.3 370.1,296.7 371.8,299.6 373.5,300.1 375.2,300.6 376.9,300.1 378.6,300.1 380.3,298.2 382,297.7 383.7,294.3 
			385.4,294.3 387.1,293.9 388.8,287.1 390.5,286.2 392.2,288.6 393.9,291 395.6,285.2 397.3,287.6 399,274.7 400.7,273.7 
			402.4,270.3 404.1,276.6 405.8,277.1 407.5,277.5 409.2,275.6 410.9,267.9 412.6,267.5 414.3,267.5 416,265.1 417.7,261.2 
			419.4,260.7 421.1,251.1 422.8,259.8 424.5,265.5 426.2,265.1 427.9,269.4 429.6,260.7 431.3,261.7 433,258.3 434.7,264.6 
			436.4,264.6 438.1,271.8 439.8,263.1 441.5,264.1 443.2,273.2 444.9,277.1 446.6,276.1 448.3,282.8 450,278 451.7,267.9 
			453.4,272.3 455.1,271.3 456.8,268.4 458.5,256.9 460.2,265.5 461.9,262.2 463.6,266 465.3,261.7 467,270.3 468.7,264.6 
			470.4,263.1 472.1,264.1 473.8,262.2 475.5,262.2 477.2,259.8 478.9,267.9 480.6,266.5 482.3,269.4 484,268.9 485.7,282.3 
			487.4,287.1 489.1,291 490.8,291.9 492.5,293.9 494.2,282.8 495.9,285.2 497.6,281.4 499.3,279 501,279.9 502.7,259.3 
			504.4,260.7 506.1,272.7 507.8,267.9 509.5,283.3 511.2,283.3 512.9,283.8 514.6,280.4 516.3,272.3 518,268.4 519.7,265.5 
			521.4,261.2 523.1,262.7 524.8,255.5 526.5,255.9 528.2,267 529.9,272.7 531.6,273.7 533.3,277.1 535,267.9 536.7,263.6 
			538.4,267.9 540.1,266.5 541.8,272.3 543.5,265.5 545.2,266 546.9,270.3 548.6,270.3 550.3,272.7 552,267.9 553.7,261.7 
			555.4,257.4 557.1,262.2 558.8,260.7 560.5,253.5 562.2,244.4 563.9,251.1 565.6,252.1 567.3,246.8 569,264.6 570.7,258.3 
			572.4,262.7 574.1,271.8 575.8,286.2 577.5,286.2 579.2,291.9 580.9,296.3 582.6,291.5 584.3,298.2 586,302 587.7,298.7 
			589.4,299.6 591.1,300.1 592.8,301.1 594.5,301.1 596.2,298.2 597.9,296.7 599.6,293.9 601.3,287.1 603,287.1 604.7,288.1 
			606.4,281.9 608.1,285.7 609.8,282.3 611.5,283.3 613.2,285.7 614.9,281.4 616.6,271.3 618.3,263.1 620,261.2 621.7,278.5 
			623.4,279.9 625.1,281.9 626.8,279.5 628.5,281.4 630.2,279.5 631.9,272.7 633.6,269.9 635.3,270.8 637,262.2 638.7,263.6 
			640.4,255.9 642.1,249.2 643.8,253.5 645.5,261.7 647.2,264.1 648.9,263.6 650.6,267.9 652.3,267.9 654,267 655.7,267.5 
			657.4,268.9 659.1,263.6 660.8,263.6 662.5,256.4 664.2,246.8 665.9,258.8 667.6,263.6 669.3,257.4 671,241.1 672.7,262.7 
			674.4,250.2 676.1,242 677.8,232.9 679.5,221.9 681.2,219.9 682.9,220.4 684.6,216.6 686.3,220.9 688,196.4 689.7,207.9 
			691.4,203.6 693.1,223.3 694.8,220.4 696.5,237.7 698.2,224.3 699.9,234.3 701.6,233.9 703.3,243 705,251.1 706.7,243.5 
			708.4,244.4 710.1,244.4 711.8,250.2 713.5,254 715.2,256.4 716.9,249.2 718.6,262.7 720.3,264.6 722,267.9 723.7,265.1 
			725.4,264.1 727.1,265.1 728.8,269.4 730.5,271.3 732.2,262.2 733.9,263.1 735.6,265.1 737.3,271.3 739,276.1 740.7,284.3 
			742.4,285.7 744.1,291 745.8,284.7 747.5,285.2 749.2,291.5 750.9,295.3 752.6,291.9 754.3,273.7 756,283.3 757.7,276.6 
			759.4,290 761.1,290 762.8,289.5 764.5,290.5 766.2,292.4 767.9,296.7 769.6,294.8 771.3,286.7 773,282.8 774.7,288.6 
			776.4,286.7 778.1,286.2 779.8,293.9 781.5,295.8 783.2,293.9 784.9,299.6 786.6,302 788.3,301.1 790,302 791.7,301.5 
			793.4,302.5 795.1,302.5 796.8,301.5 798.5,301.5 800.2,302.5 801.9,302 803.6,302.5 805.3,301.5 807,301.1 808.7,299.1 
			810.4,300.6 812.1,300.6 813.8,301.5 815.5,302.5 817.2,300.6 818.9,300.6 820.6,299.1 822.3,293.9 824,288.1 825.7,282.8 
			827.4,288.6 829.1,290.5 830.8,286.2 832.5,281.9 834.2,277.5 835.9,273.2 837.6,277.5 839.3,280.4 841,280.4 842.7,288.1 
			844.4,283.3 846.1,286.7 847.8,283.3 849.5,288.1 851.2,287.1 852.9,296.3 854.6,296.3 856.3,295.8 858,296.3 859.7,294.8 
			861.4,298.2 863.1,296.3 864.8,290.5 866.5,288.1 868.2,296.3 869.9,297.7 871.6,300.1 873.3,298.2 875,294.3 876.7,298.2 
			878.4,295.3 880.1,291.5 881.8,286.2 883.5,285.2 885.2,288.1 886.9,292.9 888.6,293.4 		"/>
		<polyline class="st8" points="40.3,274.2 42,276.1 43.7,277.1 45.4,275.6 47.1,279.9 48.8,269.4 50.5,273.2 52.2,269.4 
			53.9,275.1 55.6,286.2 57.3,286.7 59,292.4 60.7,298.7 62.4,294.8 64.1,301.1 65.8,302 67.5,302.5 69.2,302.5 70.9,301.5 
			72.6,299.6 74.3,295.3 76,291 77.7,291.9 79.4,294.8 81.1,299.1 82.8,297.7 84.5,300.6 86.2,301.5 87.9,302 89.6,302.5 
			91.3,301.1 93,302 94.7,302.5 96.4,302.5 98.1,302.5 99.8,302.5 101.5,302 103.2,302.5 104.9,302.5 106.6,302.5 108.3,302.5 
			110,302.5 111.7,302.5 113.4,302 115.1,302 116.8,302.5 118.5,300.6 120.2,299.6 121.9,299.6 123.6,302 125.3,302.5 127,302 
			128.7,301.1 130.4,302.5 132.1,302 133.8,300.6 135.5,301.1 137.2,299.6 138.9,300.6 140.6,296.3 142.3,301.1 144,300.1 
			145.7,300.1 147.4,298.2 149.1,300.1 150.8,300.1 152.5,301.5 154.2,301.5 155.9,302.5 157.6,301.5 159.3,302.5 161,302.5 
			162.7,302 164.4,302.5 166.1,302.5 167.8,300.6 169.5,299.1 171.2,298.7 172.9,294.3 174.6,295.3 176.3,295.8 178,293.4 
			179.7,296.7 181.4,294.8 183.1,296.3 184.8,298.2 186.5,297.2 188.2,295.3 189.9,301.1 191.6,301.5 193.3,302 195,302 196.7,302 
			198.4,302 200.1,301.5 201.8,302 203.5,301.5 205.2,300.6 206.9,302 208.6,302 210.3,301.1 212,301.1 213.7,298.7 215.4,298.2 
			217.1,299.6 218.8,296.7 220.5,294.3 222.2,288.1 223.9,290 225.6,291 227.3,289.5 229,289.5 230.7,282.8 232.4,278.5 
			234.1,272.3 235.8,285.7 237.5,288.1 239.2,288.6 240.9,284.3 242.6,293.4 244.3,291.9 246,289.5 247.7,295.8 249.4,298.2 
			251.1,292.4 252.8,294.8 254.5,293.4 256.2,296.3 257.9,296.7 259.6,299.6 261.3,296.7 263,294.8 264.7,299.1 266.4,297.7 
			268.1,294.8 269.8,299.1 271.5,300.1 273.2,299.6 274.9,295.8 276.6,294.8 278.3,295.8 280,293.9 281.7,292.9 283.4,290.5 
			285.1,287.1 286.8,287.1 288.5,284.3 290.2,279 291.9,290.5 293.6,286.7 295.3,286.2 297,294.3 298.7,296.7 300.4,296.7 
			302.1,295.8 303.8,293.9 305.5,296.3 307.2,293.9 308.9,293.9 310.6,296.3 312.3,289.5 314,290.5 315.7,292.4 317.4,297.2 
			319.1,296.3 320.8,294.8 322.5,294.3 324.2,296.3 325.9,296.3 327.6,300.1 329.3,301.5 331,302.5 332.7,301.5 334.4,300.6 
			336.1,301.5 337.8,302 339.5,300.6 341.2,299.6 342.9,300.6 344.6,302 346.3,302.5 348,302.5 349.7,302.5 351.4,302.5 353.1,302 
			354.8,302.5 356.5,302.5 358.2,302.5 359.9,301.5 361.6,302.5 363.3,302.5 365,302.5 366.7,302.5 368.4,302.5 370.1,302 
			371.8,301.5 373.5,301.5 375.2,301.1 376.9,300.1 378.6,299.1 380.3,299.6 382,301.1 383.7,300.6 385.4,300.6 387.1,299.6 
			388.8,299.6 390.5,293.9 392.2,296.3 393.9,294.8 395.6,294.8 397.3,295.8 399,297.7 400.7,300.6 402.4,302.5 404.1,300.6 
			405.8,302.5 407.5,302.5 409.2,301.1 410.9,302 412.6,302.5 414.3,302.5 416,302.5 417.7,302.5 419.4,301.5 421.1,301.1 
			422.8,301.5 424.5,302 426.2,300.6 427.9,302 429.6,299.6 431.3,300.6 433,299.1 434.7,300.6 436.4,301.5 438.1,302 439.8,302 
			441.5,300.6 443.2,294.8 444.9,295.3 446.6,292.9 448.3,291.9 450,291.5 451.7,290.5 453.4,283.8 455.1,280.9 456.8,276.6 
			458.5,283.8 460.2,287.6 461.9,286.2 463.6,281.9 465.3,268.9 467,280.9 468.7,280.4 470.4,282.8 472.1,282.8 473.8,275.6 
			475.5,276.6 477.2,279.9 478.9,263.6 480.6,262.2 482.3,258.8 484,259.3 485.7,262.2 487.4,267 489.1,263.6 490.8,269.4 
			492.5,284.7 494.2,290 495.9,287.6 497.6,290 499.3,294.8 501,286.7 502.7,288.1 504.4,287.6 506.1,284.3 507.8,290.5 
			509.5,287.1 511.2,283.8 512.9,289.1 514.6,279.9 516.3,285.2 518,288.1 519.7,289.5 521.4,289.5 523.1,295.8 524.8,295.3 
			526.5,300.6 528.2,301.1 529.9,300.6 531.6,300.1 533.3,301.5 535,302 536.7,301.5 538.4,302 540.1,297.2 541.8,294.8 
			543.5,297.2 545.2,293.9 546.9,297.2 548.6,301.1 550.3,297.7 552,301.5 553.7,301.5 555.4,302 557.1,301.5 558.8,300.6 
			560.5,298.7 562.2,295.8 563.9,295.8 565.6,296.3 567.3,297.2 569,297.7 570.7,297.2 572.4,294.8 574.1,294.8 575.8,294.3 
			577.5,297.2 579.2,298.7 580.9,298.7 582.6,298.2 584.3,300.1 586,297.7 587.7,298.2 589.4,299.1 591.1,299.1 592.8,296.3 
			594.5,297.7 596.2,296.7 597.9,302 599.6,302.5 601.3,302.5 603,302.5 604.7,301.1 606.4,302 608.1,301.1 609.8,302 611.5,302 
			613.2,301.5 614.9,299.6 616.6,299.1 618.3,300.1 620,301.1 621.7,301.1 623.4,302.5 625.1,302.5 626.8,302.5 628.5,301.1 
			630.2,299.1 631.9,297.7 633.6,300.1 635.3,296.7 637,299.1 638.7,300.6 640.4,299.1 642.1,298.2 643.8,298.2 645.5,297.2 
			647.2,298.7 648.9,293.9 650.6,290 652.3,284.7 654,291.9 655.7,289.5 657.4,291.9 659.1,289.1 660.8,293.4 662.5,299.1 
			664.2,298.7 665.9,297.7 667.6,300.6 669.3,299.6 671,300.6 672.7,301.1 674.4,299.1 676.1,301.1 677.8,302.5 679.5,302.5 
			681.2,302 682.9,302.5 684.6,301.5 686.3,301.1 688,300.6 689.7,300.6 691.4,301.1 693.1,299.6 694.8,296.3 696.5,294.8 
			698.2,292.4 699.9,295.8 701.6,296.3 703.3,294.3 705,291 706.7,294.3 708.4,298.2 710.1,299.1 711.8,297.2 713.5,297.7 
			715.2,291.9 716.9,294.8 718.6,298.2 720.3,295.3 722,293.9 723.7,293.9 725.4,294.8 727.1,293.9 728.8,288.1 730.5,278.5 
			732.2,279 733.9,277.1 735.6,280.4 737.3,274.7 739,272.3 740.7,274.2 742.4,274.2 744.1,269.9 745.8,266.5 747.5,278.5 
			749.2,281.9 750.9,272.3 752.6,277.5 754.3,275.1 756,277.5 757.7,272.3 759.4,279.9 761.1,286.7 762.8,288.6 764.5,289.5 
			766.2,294.8 767.9,284.7 769.6,286.7 771.3,284.7 773,287.1 774.7,277.1 776.4,271.8 778.1,272.7 779.8,271.3 781.5,280.4 
			783.2,278 784.9,275.1 786.6,283.8 788.3,292.9 790,298.7 791.7,296.7 793.4,298.7 795.1,294.3 796.8,296.3 798.5,292.9 
			800.2,297.2 801.9,293.9 803.6,291 805.3,291 807,293.4 808.7,299.1 810.4,299.6 812.1,298.2 813.8,292.9 815.5,296.3 
			817.2,297.7 818.9,301.5 820.6,301.5 822.3,301.5 824,302.5 825.7,301.1 827.4,299.6 829.1,296.3 830.8,295.3 832.5,296.3 
			834.2,292.4 835.9,293.9 837.6,296.3 839.3,288.6 841,295.3 842.7,293.9 844.4,291 846.1,287.1 847.8,286.7 849.5,284.7 
			851.2,280.9 852.9,282.8 854.6,279.5 856.3,283.3 858,282.8 859.7,280.9 861.4,282.8 863.1,290 864.8,288.6 866.5,291 868.2,290 
			869.9,291 871.6,293.9 873.3,298.2 875,297.7 876.7,297.7 878.4,298.2 880.1,294.8 881.8,293.4 883.5,295.8 885.2,298.2 
			886.9,293.4 888.6,295.3 		"/>
		<polyline class="st9" points="40.3,276.1 42,289.1 43.7,286.2 45.4,288.1 47.1,286.2 48.8,285.7 50.5,280.9 52.2,289.5 
			53.9,295.8 55.6,300.1 57.3,302 59,301.1 60.7,301.1 62.4,301.5 64.1,302 65.8,299.1 67.5,298.7 69.2,299.1 70.9,299.6 
			72.6,301.1 74.3,299.6 76,300.6 77.7,297.7 79.4,298.2 81.1,295.3 82.8,296.3 84.5,287.6 86.2,280.4 87.9,284.7 89.6,288.1 
			91.3,282.3 93,279.9 94.7,281.4 96.4,264.1 98.1,255.9 99.8,255.5 101.5,255.9 103.2,244.4 104.9,251.1 106.6,254 108.3,261.2 
			110,268.4 111.7,268.9 113.4,268.9 115.1,265.1 116.8,261.7 118.5,259.8 120.2,268.4 121.9,263.6 123.6,260.7 125.3,266 127,267 
			128.7,270.8 130.4,262.7 132.1,266.5 133.8,265.5 135.5,258.8 137.2,257.4 138.9,263.1 140.6,265.5 142.3,250.7 144,250.7 
			145.7,240.1 147.4,236.3 149.1,219 150.8,216.6 152.5,206.5 154.2,195.9 155.9,196.4 157.6,192.1 159.3,194.5 161,192.1 
			162.7,195 164.4,177.7 166.1,175.3 167.8,184.4 169.5,180.6 171.2,193.5 172.9,170 174.6,160.4 176.3,163.3 178,145.1 
			179.7,132.1 181.4,151.8 183.1,155.1 184.8,164.3 186.5,155.6 188.2,150.3 189.9,144.6 191.6,137.9 193.3,134 195,126.3 
			196.7,116.3 198.4,123.5 200.1,133.5 201.8,124.9 203.5,118.7 205.2,131.6 206.9,135.9 208.6,141.7 210.3,151.3 212,156.1 
			213.7,170 215.4,165.2 217.1,156.6 218.8,161.9 220.5,177.7 222.2,200.7 223.9,202.7 225.6,199.3 227.3,176.3 229,181.5 
			230.7,184.9 232.4,189.2 234.1,194.5 235.8,188.7 237.5,195.9 239.2,204.1 240.9,213.7 242.6,229.1 244.3,209.4 246,221.9 
			247.7,217.1 249.4,232.9 251.1,219.9 252.8,225.7 254.5,217.1 256.2,206 257.9,192.1 259.6,184.4 261.3,201.2 263,206.5 
			264.7,187.3 266.4,180.6 268.1,177.7 269.8,189.7 271.5,174.8 273.2,183.5 274.9,164.7 276.6,179.1 278.3,184.4 280,176.7 
			281.7,187.3 283.4,201.2 285.1,190.7 286.8,208.9 288.5,209.9 290.2,205.5 291.9,205.1 293.6,218 295.3,232.9 297,234.3 
			298.7,231.9 300.4,212.7 302.1,210.8 303.8,221.4 305.5,219.9 307.2,231 308.9,219 310.6,215.6 312.3,222.8 314,228.6 
			315.7,225.2 317.4,228.6 319.1,235.3 320.8,246.3 322.5,243.9 324.2,242.5 325.9,230 327.6,226.2 329.3,217.1 331,204.1 
			332.7,180.6 334.4,184.4 336.1,193.1 337.8,171.9 339.5,168.6 341.2,161.4 342.9,164.3 344.6,165.2 346.3,187.3 348,197.9 
			349.7,199.8 351.4,209.9 353.1,193.5 354.8,218 356.5,215.6 358.2,210.3 359.9,207.9 361.6,217.1 363.3,212.7 365,216.6 
			366.7,226.2 368.4,219 370.1,222.8 371.8,212.7 373.5,210.3 375.2,211.3 376.9,214.7 378.6,224.3 380.3,224.7 382,226.7 
			383.7,221.9 385.4,232.4 387.1,253.5 388.8,256.9 390.5,260.7 392.2,247.8 393.9,245.4 395.6,239.1 397.3,246.3 399,254.5 
			400.7,258.3 402.4,250.2 404.1,245.9 405.8,251.6 407.5,250.7 409.2,276.1 410.9,278 412.6,277.1 414.3,282.8 416,286.7 
			417.7,288.6 419.4,287.1 421.1,291 422.8,293.4 424.5,294.8 426.2,297.7 427.9,297.7 429.6,297.7 431.3,295.3 433,297.7 
			434.7,296.3 436.4,296.3 438.1,300.6 439.8,301.5 441.5,298.7 443.2,296.7 444.9,299.1 446.6,298.7 448.3,300.1 450,302.5 
			451.7,302.5 453.4,301.5 455.1,300.6 456.8,302 458.5,301.5 460.2,302 461.9,300.6 463.6,298.7 465.3,299.1 467,301.1 468.7,302 
			470.4,302.5 472.1,301.5 473.8,298.2 475.5,299.1 477.2,299.1 478.9,299.1 480.6,296.3 482.3,298.2 484,299.6 485.7,299.6 
			487.4,299.6 489.1,301.1 490.8,298.2 492.5,293.9 494.2,290.5 495.9,282.8 497.6,278.5 499.3,270.3 501,278.5 502.7,279 
			504.4,275.1 506.1,268.4 507.8,273.7 509.5,265.5 511.2,262.2 512.9,262.7 514.6,269.9 516.3,270.3 518,266.5 519.7,267.9 
			521.4,272.3 523.1,276.1 524.8,277.1 526.5,277.5 528.2,282.8 529.9,270.8 531.6,264.1 533.3,266 535,269.9 536.7,264.1 
			538.4,263.1 540.1,264.6 541.8,264.6 543.5,264.6 545.2,266.5 546.9,272.3 548.6,267.5 550.3,263.6 552,268.4 553.7,274.7 
			555.4,278 557.1,273.7 558.8,275.6 560.5,280.4 562.2,281.4 563.9,278 565.6,279.5 567.3,273.2 569,274.7 570.7,270.3 
			572.4,260.7 574.1,268.9 575.8,270.3 577.5,278.5 579.2,274.7 580.9,265.5 582.6,254.5 584.3,246.3 586,230 587.7,227.1 
			589.4,225.2 591.1,223.8 592.8,225.2 594.5,228.1 596.2,230 597.9,234.3 599.6,244.4 601.3,247.3 603,250.2 604.7,239.1 
			606.4,249.2 608.1,257.4 609.8,257.4 611.5,258.8 613.2,273.2 614.9,275.6 616.6,273.7 618.3,272.7 620,281.9 621.7,279.9 
			623.4,290 625.1,291.5 626.8,294.3 628.5,296.7 630.2,298.7 631.9,298.7 633.6,294.8 635.3,294.3 637,292.9 638.7,295.3 
			640.4,297.2 642.1,297.2 643.8,291.9 645.5,278.5 647.2,282.8 648.9,285.2 650.6,279.9 652.3,283.3 654,283.3 655.7,288.1 
			657.4,289.5 659.1,290 660.8,295.3 662.5,293.4 664.2,294.3 665.9,295.8 667.6,296.3 669.3,298.2 671,297.7 672.7,298.2 
			674.4,299.6 676.1,301.1 677.8,302 679.5,302.5 681.2,302.5 682.9,302 684.6,301.1 686.3,302.5 688,302.5 689.7,301.5 691.4,302 
			693.1,299.6 694.8,300.1 696.5,297.7 698.2,294.3 699.9,292.4 701.6,289.1 703.3,295.8 705,294.3 706.7,295.3 708.4,295.3 
			710.1,298.2 711.8,296.7 713.5,297.7 715.2,302 716.9,302.5 718.6,302.5 720.3,302.5 722,302 723.7,302 725.4,302.5 727.1,302.5 
			728.8,302 730.5,302.5 732.2,302.5 733.9,299.6 735.6,302 737.3,300.6 739,302.5 740.7,302 742.4,302 744.1,302.5 745.8,302.5 
			747.5,302.5 749.2,302 750.9,300.6 752.6,294.3 754.3,283.8 756,289.1 757.7,286.7 759.4,281.9 761.1,267.5 762.8,266.5 
			764.5,266.5 766.2,243.9 767.9,241.1 769.6,237.7 771.3,236.7 773,230.5 774.7,246.8 776.4,240.1 778.1,237.7 779.8,217.5 
			781.5,225.2 783.2,235.8 784.9,231.9 786.6,244.9 788.3,243 790,238.2 791.7,230.5 793.4,240.6 795.1,232.9 796.8,219.5 
			798.5,233.9 800.2,228.1 801.9,199.8 803.6,206 805.3,210.3 807,207.5 808.7,207 810.4,215.1 812.1,226.7 813.8,214.7 
			815.5,211.3 817.2,203.1 818.9,212.7 820.6,225.7 822.3,226.2 824,225.2 825.7,228.6 827.4,227.1 829.1,234.3 830.8,241.5 
			832.5,228.6 834.2,252.6 835.9,249.7 837.6,255 839.3,246.3 841,256.4 842.7,252.1 844.4,256.9 846.1,265.5 847.8,270.3 
			849.5,270.3 851.2,272.7 852.9,261.2 854.6,270.3 856.3,274.7 858,284.7 859.7,280.9 861.4,273.2 863.1,275.1 864.8,273.7 
			866.5,281.4 868.2,285.7 869.9,290 871.6,292.4 873.3,296.3 875,295.8 876.7,294.8 878.4,297.7 880.1,297.7 881.8,298.7 
			883.5,297.7 885.2,294.3 886.9,289.5 888.6,280.4 		"/>
		<polyline class="st10" points="40.3,269.4 42,266.5 43.7,264.1 45.4,271.3 47.1,261.7 48.8,268.4 50.5,253.5 52.2,251.6 
			53.9,252.1 55.6,239.6 57.3,238.2 59,249.2 60.7,256.4 62.4,255.5 64.1,258.8 65.8,270.8 67.5,267.9 69.2,266.5 70.9,275.1 
			72.6,276.6 74.3,280.9 76,286.7 77.7,287.6 79.4,292.4 81.1,285.7 82.8,284.7 84.5,279 86.2,285.7 87.9,283.8 89.6,283.8 
			91.3,278.5 93,283.3 94.7,279 96.4,286.7 98.1,291 99.8,290 101.5,283.8 103.2,274.7 104.9,278.5 106.6,283.3 108.3,285.7 
			110,279.5 111.7,271.8 113.4,281.9 115.1,284.7 116.8,288.6 118.5,285.2 120.2,276.6 121.9,272.7 123.6,267.9 125.3,272.7 
			127,270.3 128.7,270.3 130.4,269.9 132.1,262.7 133.8,264.1 135.5,269.4 137.2,277.1 138.9,279 140.6,286.7 142.3,284.7 
			144,283.3 145.7,286.2 147.4,290.5 149.1,291.5 150.8,289.1 152.5,289.1 154.2,281.9 155.9,284.3 157.6,279 159.3,279.5 
			161,284.3 162.7,284.3 164.4,279 166.1,288.6 167.8,292.4 169.5,288.6 171.2,289.1 172.9,287.6 174.6,287.6 176.3,280.9 
			178,284.7 179.7,275.1 181.4,271.3 183.1,267 184.8,271.3 186.5,268.4 188.2,276.6 189.9,284.7 191.6,281.9 193.3,280.9 
			195,277.5 196.7,281.9 198.4,277.1 200.1,270.3 201.8,279.9 203.5,280.9 205.2,281.9 206.9,280.9 208.6,276.6 210.3,279 
			212,276.6 213.7,276.6 215.4,275.1 217.1,281.4 218.8,286.7 220.5,287.6 222.2,291.5 223.9,291 225.6,295.8 227.3,298.7 
			229,298.2 230.7,297.2 232.4,293.4 234.1,294.8 235.8,300.1 237.5,300.1 239.2,301.1 240.9,296.3 242.6,292.4 244.3,292.9 
			246,293.9 247.7,296.3 249.4,296.3 251.1,290 252.8,288.6 254.5,287.6 256.2,291.5 257.9,293.4 259.6,292.9 261.3,292.9 263,290 
			264.7,293.9 266.4,291 268.1,292.9 269.8,293.4 271.5,298.7 273.2,300.6 274.9,302.5 276.6,302.5 278.3,301.5 280,299.1 
			281.7,301.5 283.4,302 285.1,302.5 286.8,302.5 288.5,302 290.2,301.5 291.9,299.1 293.6,299.6 295.3,299.1 297,294.8 
			298.7,297.2 300.4,296.3 302.1,297.7 303.8,294.3 305.5,293.4 307.2,293.9 308.9,293.4 310.6,288.6 312.3,291.9 314,293.4 
			315.7,293.4 317.4,290 319.1,288.6 320.8,279 322.5,280.4 324.2,273.2 325.9,274.2 327.6,273.2 329.3,265.1 331,264.6 
			332.7,258.8 334.4,240.1 336.1,234.8 337.8,231.5 339.5,224.7 341.2,251.1 342.9,256.4 344.6,256.9 346.3,255.9 348,259.8 
			349.7,266 351.4,274.2 353.1,287.1 354.8,288.1 356.5,290 358.2,291 359.9,285.7 361.6,279.5 363.3,280.4 365,267.9 366.7,260.7 
			368.4,263.6 370.1,258.3 371.8,252.1 373.5,258.3 375.2,269.9 376.9,250.2 378.6,243.5 380.3,243.9 382,251.6 383.7,251.6 
			385.4,255.5 387.1,236.3 388.8,232.9 390.5,233.9 392.2,231.5 393.9,231.5 395.6,239.6 397.3,227.6 399,204.1 400.7,192.6 
			402.4,207 404.1,209.9 405.8,213.2 407.5,221.9 409.2,205.5 410.9,209.4 412.6,218 414.3,204.6 416,207 417.7,206 419.4,211.3 
			421.1,207.5 422.8,216.1 424.5,211.8 426.2,213.2 427.9,204.6 429.6,200.3 431.3,218 433,226.7 434.7,216.1 436.4,203.1 
			438.1,191.6 439.8,175.3 441.5,188.3 443.2,181.1 444.9,192.6 446.6,221.9 448.3,219 450,231 451.7,228.1 453.4,225.2 
			455.1,233.9 456.8,234.3 458.5,244.9 460.2,241.5 461.9,255.9 463.6,257.9 465.3,260.7 467,250.7 468.7,253.1 470.4,264.1 
			472.1,253.1 473.8,263.6 475.5,260.7 477.2,263.6 478.9,266 480.6,271.3 482.3,280.4 484,278.5 485.7,277.1 487.4,282.8 
			489.1,284.7 490.8,282.3 492.5,279.9 494.2,283.8 495.9,281.9 497.6,283.8 499.3,284.3 501,276.6 502.7,286.2 504.4,282.8 
			506.1,287.1 507.8,281.9 509.5,278 511.2,274.7 512.9,269.9 514.6,270.3 516.3,274.7 518,275.6 519.7,271.8 521.4,266 
			523.1,261.2 524.8,262.2 526.5,267 528.2,244.9 529.9,255.9 531.6,252.6 533.3,242.5 535,238.7 536.7,225.7 538.4,217.5 
			540.1,218 541.8,204.6 543.5,202.2 545.2,199.3 546.9,200.7 548.6,201.2 550.3,202.2 552,205.5 553.7,199.8 555.4,192.6 
			557.1,183.9 558.8,176.7 560.5,179.6 562.2,178.2 563.9,174.3 565.6,176.3 567.3,177.2 569,179.1 570.7,196.4 572.4,191.1 
			574.1,188.3 575.8,148.4 577.5,159.9 579.2,151.8 580.9,168.1 582.6,167.6 584.3,137.9 586,153.2 587.7,151.8 589.4,135.9 
			591.1,157.5 592.8,156.6 594.5,155.6 596.2,167.1 597.9,164.7 599.6,158 601.3,167.6 603,171.9 604.7,173.9 606.4,166.7 
			608.1,147.9 609.8,153.7 611.5,143.6 613.2,122.5 614.9,127.8 616.6,136.9 618.3,146 620,149.4 621.7,141.7 623.4,136.9 
			625.1,140.7 626.8,142.2 628.5,140.3 630.2,116.3 631.9,127.3 633.6,152.7 635.3,152.7 637,165.7 638.7,156.1 640.4,156.1 
			642.1,165.2 643.8,168.6 645.5,171.5 647.2,169.1 648.9,174.8 650.6,175.8 652.3,195.9 654,183 655.7,202.7 657.4,202.2 
			659.1,203.1 660.8,208.4 662.5,207 664.2,214.7 665.9,208.4 667.6,204.6 669.3,204.1 671,220.9 672.7,214.2 674.4,221.9 
			676.1,218.5 677.8,226.7 679.5,217.5 681.2,220.9 682.9,223.8 684.6,206.5 686.3,189.2 688,203.6 689.7,209.4 691.4,214.2 
			693.1,205.1 694.8,212.3 696.5,206.5 698.2,218.5 699.9,213.7 701.6,226.2 703.3,213.2 705,213.7 706.7,215.1 708.4,201.2 
			710.1,202.2 711.8,203.1 713.5,200.7 715.2,204.6 716.9,204.6 718.6,191.1 720.3,189.2 722,197.9 723.7,205.1 725.4,212.7 
			727.1,214.7 728.8,214.7 730.5,214.2 732.2,216.1 733.9,210.8 735.6,219.5 737.3,219.9 739,219 740.7,207.5 742.4,233.9 
			744.1,228.6 745.8,247.8 747.5,236.3 749.2,249.2 750.9,245.4 752.6,246.8 754.3,265.1 756,267.5 757.7,271.8 759.4,278.5 
			761.1,275.6 762.8,279 764.5,279.5 766.2,283.3 767.9,278.5 769.6,285.7 771.3,279 773,277.1 774.7,268.9 776.4,267.5 
			778.1,267.5 779.8,260.3 781.5,253.1 783.2,244.9 784.9,237.7 786.6,225.7 788.3,235.8 790,245.4 791.7,235.8 793.4,234.8 
			795.1,229.5 796.8,230.5 798.5,226.2 800.2,216.1 801.9,234.3 803.6,224.3 805.3,231.5 807,236.3 808.7,235.3 810.4,237.2 
			812.1,233.4 813.8,252.6 815.5,255.5 817.2,256.9 818.9,255 820.6,244.9 822.3,247.3 824,241.1 825.7,241.5 827.4,256.4 
			829.1,255.9 830.8,249.2 832.5,255 834.2,258.8 835.9,265.5 837.6,266.5 839.3,276.1 841,276.6 842.7,283.3 844.4,279 
			846.1,272.3 847.8,271.8 849.5,270.3 851.2,273.7 852.9,267.5 854.6,268.4 856.3,270.8 858,267 859.7,269.4 861.4,270.3 
			863.1,279 864.8,281.9 866.5,286.2 868.2,280.9 869.9,278.5 871.6,279.5 873.3,271.3 875,278 876.7,268.4 878.4,269.4 
			880.1,268.9 881.8,264.1 883.5,261.2 885.2,257.4 886.9,263.1 888.6,272.3 		"/>
		<polyline class="st11" points="40.3,272.7 42,276.6 43.7,280.9 45.4,282.3 47.1,283.8 48.8,282.3 50.5,291.9 52.2,293.9 
			53.9,289.5 55.6,291 57.3,291 59,293.4 60.7,297.2 62.4,296.7 64.1,295.3 65.8,293.4 67.5,291 69.2,289.5 70.9,282.3 72.6,294.8 
			74.3,297.2 76,296.3 77.7,296.7 79.4,301.1 81.1,301.5 82.8,302 84.5,300.6 86.2,301.5 87.9,302 89.6,302.5 91.3,301.5 93,302.5 
			94.7,302 96.4,302.5 98.1,302.5 99.8,302 101.5,301.5 103.2,301.5 104.9,301.5 106.6,301.5 108.3,302 110,302 111.7,302.5 
			113.4,301.5 115.1,300.1 116.8,300.6 118.5,299.6 120.2,297.7 121.9,287.1 123.6,288.1 125.3,288.1 127,288.6 128.7,286.2 
			130.4,289.1 132.1,288.1 133.8,282.3 135.5,285.2 137.2,288.6 138.9,283.8 140.6,278 142.3,289.1 144,291.9 145.7,294.8 
			147.4,296.3 149.1,296.7 150.8,296.3 152.5,289.1 154.2,290.5 155.9,279.5 157.6,283.3 159.3,287.6 161,290 162.7,292.4 
			164.4,296.7 166.1,297.7 167.8,297.2 169.5,298.7 171.2,302.5 172.9,302.5 174.6,302.5 176.3,302 178,301.1 179.7,302.5 
			181.4,302.5 183.1,301.1 184.8,301.1 186.5,302 188.2,302 189.9,302.5 191.6,302.5 193.3,302.5 195,302.5 196.7,302.5 198.4,302 
			200.1,301.5 201.8,301.1 203.5,300.1 205.2,301.5 206.9,301.1 208.6,301.5 210.3,302.5 212,302.5 213.7,300.1 215.4,299.1 
			217.1,298.2 218.8,299.1 220.5,302 222.2,302.5 223.9,302 225.6,301.5 227.3,302.5 229,302.5 230.7,302 232.4,302.5 234.1,302.5 
			235.8,302.5 237.5,302.5 239.2,302 240.9,301.5 242.6,302.5 244.3,302.5 246,301.5 247.7,302.5 249.4,302 251.1,300.1 252.8,302 
			254.5,301.1 256.2,301.5 257.9,302 259.6,302 261.3,302 263,301.1 264.7,301.1 266.4,300.6 268.1,299.1 269.8,298.7 271.5,298.2 
			273.2,296.7 274.9,292.9 276.6,293.4 278.3,298.7 280,300.6 281.7,302 283.4,300.6 285.1,295.3 286.8,295.3 288.5,291.9 
			290.2,293.4 291.9,293.4 293.6,294.3 295.3,288.6 297,290 298.7,283.3 300.4,281.9 302.1,280.4 303.8,276.1 305.5,280.9 
			307.2,279.9 308.9,273.2 310.6,273.7 312.3,279.9 314,279 315.7,284.3 317.4,279.5 319.1,282.8 320.8,280.4 322.5,278 
			324.2,284.7 325.9,288.1 327.6,284.7 329.3,285.2 331,289.5 332.7,288.6 334.4,291.5 336.1,291.9 337.8,287.6 339.5,291 
			341.2,289.1 342.9,288.1 344.6,290.5 346.3,290.5 348,295.3 349.7,289.5 351.4,288.1 353.1,292.4 354.8,283.8 356.5,287.1 
			358.2,288.1 359.9,293.9 361.6,293.4 363.3,296.3 365,295.3 366.7,294.3 368.4,297.2 370.1,301.1 371.8,302 373.5,302 
			375.2,302.5 376.9,302.5 378.6,301.5 380.3,301.5 382,302 383.7,302.5 385.4,301.5 387.1,302 388.8,302.5 390.5,302 392.2,302 
			393.9,299.1 395.6,296.3 397.3,292.9 399,299.6 400.7,298.7 402.4,300.6 404.1,298.7 405.8,296.7 407.5,295.3 409.2,293.4 
			410.9,292.4 412.6,285.7 414.3,290.5 416,279.9 417.7,270.8 419.4,276.6 421.1,281.9 422.8,275.6 424.5,271.8 426.2,267.9 
			427.9,264.1 429.6,255.5 431.3,249.7 433,251.1 434.7,255.9 436.4,247.8 438.1,250.2 439.8,265.5 441.5,253.5 443.2,249.7 
			444.9,240.1 446.6,241.5 448.3,244.9 450,235.8 451.7,246.3 453.4,249.7 455.1,251.1 456.8,259.8 458.5,258.8 460.2,264.6 
			461.9,250.2 463.6,248.3 465.3,239.6 467,234.3 468.7,236.3 470.4,223.8 472.1,224.7 473.8,216.1 475.5,219.5 477.2,220.9 
			478.9,223.8 480.6,227.6 482.3,226.2 484,224.7 485.7,224.3 487.4,229.1 489.1,231.5 490.8,247.8 492.5,252.6 494.2,249.2 
			495.9,251.6 497.6,253.1 499.3,245.9 501,245.4 502.7,251.6 504.4,238.7 506.1,231 507.8,226.2 509.5,220.4 511.2,219 
			512.9,200.7 514.6,211.8 516.3,207.9 518,206 519.7,220.4 521.4,228.1 523.1,225.7 524.8,231 526.5,220.4 528.2,225.2 
			529.9,216.1 531.6,212.3 533.3,205.1 535,213.7 536.7,231 538.4,228.1 540.1,231.9 541.8,242.5 543.5,247.8 545.2,248.3 
			546.9,254 548.6,257.9 550.3,260.3 552,257.4 553.7,251.6 555.4,256.9 557.1,261.2 558.8,267 560.5,260.7 562.2,262.7 
			563.9,262.2 565.6,258.3 567.3,266 569,265.5 570.7,272.7 572.4,271.8 574.1,265.5 575.8,273.7 577.5,267.9 579.2,267.5 
			580.9,256.9 582.6,261.2 584.3,268.9 586,273.2 587.7,283.3 589.4,282.3 591.1,270.3 592.8,279.9 594.5,280.4 596.2,274.2 
			597.9,268.4 599.6,277.1 601.3,275.1 603,281.9 604.7,285.7 606.4,291.5 608.1,294.8 609.8,295.3 611.5,291.5 613.2,291.9 
			614.9,293.4 616.6,294.8 618.3,295.8 620,299.1 621.7,298.2 623.4,298.2 625.1,293.9 626.8,296.7 628.5,293.4 630.2,292.4 
			631.9,295.8 633.6,289.5 635.3,291 637,287.1 638.7,284.7 640.4,286.7 642.1,286.7 643.8,289.5 645.5,292.4 647.2,292.4 
			648.9,289.1 650.6,287.6 652.3,284.7 654,291.5 655.7,287.6 657.4,289.5 659.1,291 660.8,290.5 662.5,296.3 664.2,299.1 
			665.9,299.6 667.6,300.6 669.3,300.6 671,302 672.7,301.5 674.4,301.5 676.1,302 677.8,301.5 679.5,301.5 681.2,298.2 
			682.9,298.2 684.6,301.5 686.3,302 688,301.1 689.7,301.1 691.4,301.1 693.1,300.6 694.8,298.2 696.5,297.7 698.2,297.7 
			699.9,293.9 701.6,295.8 703.3,293.9 705,285.7 706.7,289.5 708.4,285.2 710.1,288.1 711.8,286.2 713.5,288.6 715.2,290.5 
			716.9,287.6 718.6,292.4 720.3,295.8 722,293.4 723.7,294.8 725.4,296.7 727.1,294.8 728.8,291.9 730.5,291.5 732.2,291.9 
			733.9,295.8 735.6,288.1 737.3,290 739,290.5 740.7,288.6 742.4,286.2 744.1,284.3 745.8,277.1 747.5,273.7 749.2,269.9 
			750.9,277.5 752.6,274.7 754.3,282.8 756,274.7 757.7,268.4 759.4,263.6 761.1,255.9 762.8,235.3 764.5,237.7 766.2,252.6 
			767.9,261.2 769.6,257.9 771.3,255.9 773,260.3 774.7,262.7 776.4,277.1 778.1,272.7 779.8,275.1 781.5,275.6 783.2,277.5 
			784.9,277.1 786.6,279.5 788.3,267.5 790,263.1 791.7,268.9 793.4,272.7 795.1,265.1 796.8,258.8 798.5,253.5 800.2,257.4 
			801.9,262.2 803.6,259.8 805.3,261.7 807,266 808.7,246.8 810.4,234.3 812.1,226.7 813.8,214.7 815.5,219.5 817.2,228.1 
			818.9,215.1 820.6,217.1 822.3,225.7 824,230 825.7,228.1 827.4,225.7 829.1,225.2 830.8,223.8 832.5,220.4 834.2,205.5 
			835.9,212.7 837.6,220.9 839.3,221.9 841,209.9 842.7,212.3 844.4,213.2 846.1,221.9 847.8,220.4 849.5,219.9 851.2,216.6 
			852.9,224.7 854.6,206.5 856.3,200.7 858,208.9 859.7,217.1 861.4,225.7 863.1,221.4 864.8,238.7 866.5,247.3 868.2,237.7 
			869.9,247.3 871.6,248.7 873.3,240.1 875,226.2 876.7,243 878.4,247.8 880.1,257.4 881.8,264.6 883.5,255.5 885.2,255 
			886.9,240.1 888.6,234.8 		"/>
	</g>
	<path class="st12" d="M40.3,2.5v300h850 M40.3,302.5v3 M210.3,302.5v3 M380.3,302.5v3 M550.3,302.5v3 M720.3,302.5v3 M890.1,302.5
		v3 M40.3,302.5h-3 M40.3,254.5h-3 M40.3,206.5h-3 M40.3,158.5h-3 M40.3,110.5h-3 M40.3,62.5h-3 M40.3,14.5h-3"/>
	<text transform="matrix(1 0 0 1 36.9678 317)" class="st13 st14 st15">0</text>
	<text transform="matrix(1 0 0 1 200.2959 317)" class="st13 st14 st15">100</text>
	<text transform="matrix(1 0 0 1 370.2959 317)" class="st13 st14 st15">200</text>
	<text transform="matrix(1 0 0 1 540.2959 317)" class="st13 st14 st15">300</text>
	<text transform="matrix(1 0 0 1 710.2959 317)" class="st13 st14 st15">400</text>
	<text transform="matrix(1 0 0 1 880.2959 317)" class="st13 st14 st15">500</text>
	<text transform="matrix(1 0 0 1 29.2334 307.5)" class="st13 st14 st15">0</text>
	<text transform="matrix(1 0 0 1 15.8896 259.5)" class="st13 st14 st15">100</text>
	<text transform="matrix(1 0 0 1 15.8896 211.5)" class="st13 st14 st15">200</text>
	<text transform="matrix(1 0 0 1 15.8896 163.4922)" class="st13 st14 st15">300</text>
	<text transform="matrix(1 0 0 1 15.8896 115.5)" class="st13 st14 st15">400</text>
	<text transform="matrix(1 0 0 1 15.8896 67.5)" class="st13 st14 st15">500</text>
	<text transform="matrix(1 0 0 1 15.8896 19.5)" class="st13 st14 st15">600</text>
	<text transform="matrix(1 0 0 1 417.6162 330.5)" class="st13 st14 st15">steps (thousands)</text>
	<text transform="matrix(0 -1 1 0 10.3037 204.1953)" class="st13 st14 st15">species abundance</text>
</g>
<text transform="matrix(1 0 0 1 54.6162 42.5)" class="st13 st14 st15">immigration rate = 1/100</text>
</svg>
